<svg xmlns="http://www.w3.org/2000/svg" viewBox="0 0 64 64" role="img" aria-label="By Cherry">
  <rect width="64" height="64" rx="18" fill="#F5F1EA"/>
  <path d="M33.5 18.8C38.2 11.6 46 9.4 52.6 12.4C48.9 19.8 41 22.4 33.5 18.8Z" fill="#A9C9AC" stroke="#31563A" stroke-width="2.4" stroke-linejoin="round"/>
  <path d="M31.8 27C31.8 18.2 36.9 13.2 44.9 11.7" fill="none" stroke="#31563A" stroke-width="2.4" stroke-linecap="round"/>
  <path d="M31.9 28.4C27.8 22.7 22.9 19.5 16.2 18.4" fill="none" stroke="#6E4937" stroke-width="2.6" stroke-linecap="round"/>
  <circle cx="21" cy="38.4" r="12.4" fill="#F07E74"/>
  <circle cx="39.7" cy="39.4" r="12.2" fill="#D94D52"/>
  <path d="M16.1 33.1C17.9 30 21.6 28.5 25.1 29.4" fill="none" stroke="#FFE7DF" stroke-width="2.5" stroke-linecap="round"/>
  <path d="M35.4 34.1C37.1 31.4 40.4 30.1 43.6 30.9" fill="none" stroke="#FFD7D0" stroke-width="2.5" stroke-linecap="round"/>
  <circle cx="26.2" cy="45.3" r="1.9" fill="#8F2E39" opacity=".38"/>
  <circle cx="44.8" cy="46.6" r="1.8" fill="#7D2530" opacity=".34"/>
  <path d="M7.8 49.2C12.1 55.6 22.3 59 32.9 58.4C44.4 57.8 54.3 52.3 56.8 44.8" fill="none" stroke="#31563A" stroke-width="2" stroke-linecap="round" opacity=".26"/>
</svg>
